<svg width="199" height="22" viewBox="0 0 199 22" fill="none" xmlns="http://www.w3.org/2000/svg">
<g clip-path="url(#clip0_15_54354)">
<path d="M26.0288 4.07199V0.215271H30.601V4.07377H26.0288V4.07199ZM26.1427 21.0757V5.75919H30.487V21.0757H26.1427Z" fill="#EF4828"/>
<path d="M43.4879 21.0757V18.8955C42.954 19.6145 42.3115 20.2054 41.5587 20.6682C40.8058 21.1309 39.859 21.3623 38.7146 21.3623C37.8194 21.3623 36.9527 21.1914 36.1144 20.8479C35.2762 20.5044 34.5322 19.9954 33.8862 19.3191C33.2383 18.6428 32.7186 17.8134 32.3289 16.8328C31.9373 15.8522 31.7433 14.7238 31.7433 13.4459V13.389C31.7433 12.1129 31.9391 10.9845 32.3289 10.0021C32.7186 9.02147 33.233 8.19211 33.8719 7.5158C34.5091 6.8395 35.2477 6.33049 36.0859 5.987C36.9242 5.64351 37.7998 5.47265 38.7146 5.47265C39.8768 5.47265 40.8343 5.69868 41.5871 6.15252C42.34 6.60635 42.9736 7.13494 43.4879 7.74005V0.215271H47.8305V21.0757H43.4879ZM43.5449 13.3872C43.5449 12.7536 43.4452 12.1734 43.2441 11.6466C43.0448 11.1198 42.7778 10.6695 42.4432 10.294C42.1104 9.92025 41.7188 9.63193 41.2721 9.43081C40.8236 9.2297 40.3431 9.12826 39.8288 9.12826C39.3144 9.12826 38.8339 9.2297 38.3854 9.43081C37.9369 9.63193 37.5418 9.92025 37.2001 10.294C36.8566 10.6677 36.586 11.1145 36.3849 11.6324C36.1856 12.1503 36.0842 12.7358 36.0842 13.3872V13.4441C36.0842 14.0777 36.1838 14.6579 36.3849 15.1847C36.5843 15.7116 36.8566 16.1618 37.2001 16.5374C37.5436 16.9111 37.9387 17.1994 38.3854 17.4005C38.8321 17.6016 39.3144 17.7031 39.8288 17.7031C40.3431 17.7031 40.8236 17.6034 41.2721 17.4005C41.7188 17.1994 42.1104 16.9111 42.4432 16.5374C42.776 16.1636 43.043 15.7133 43.2441 15.1847C43.4452 14.6562 43.5449 14.0777 43.5449 13.4441V13.3872Z" fill="#EF4828"/>
<path d="M63.8467 14.3875C63.836 14.5406 63.8218 14.7221 63.804 14.9303H53.1451C53.3551 15.9216 53.7876 16.6691 54.4461 17.1728C55.1028 17.6783 55.9179 17.9292 56.8897 17.9292C57.614 17.9292 58.2619 17.8046 58.8332 17.5572C59.4045 17.3098 59.9953 16.9094 60.6058 16.3577L63.0921 18.5574C62.3678 19.4527 61.4921 20.1539 60.4634 20.6576C59.4347 21.1612 58.2245 21.4139 56.8345 21.4139C55.6919 21.4139 54.6294 21.2235 53.6488 20.8426C52.6681 20.4618 51.8192 19.919 51.1055 19.2142C50.3918 18.5094 49.833 17.6765 49.4343 16.7136C49.0339 15.7526 48.8345 14.6812 48.8345 13.4994V13.4424C48.8345 12.3568 49.0196 11.3281 49.3916 10.3564C49.7636 9.38462 50.2815 8.53746 50.9489 7.8131C51.6163 7.08874 52.41 6.51744 53.3355 6.0992C54.2592 5.68096 55.2826 5.47095 56.4074 5.47095C57.6835 5.47095 58.7887 5.69876 59.7213 6.15615C60.6539 6.61355 61.4316 7.22756 62.051 7.99997C62.6703 8.7706 63.1277 9.65692 63.4231 10.6571C63.7186 11.6574 63.8663 12.7003 63.8663 13.7859V13.8429C63.861 14.0547 63.8574 14.2362 63.8467 14.3875ZM58.6036 9.85981C58.0501 9.26004 57.3168 8.95926 56.4038 8.95926C55.4908 8.95926 54.7504 9.2547 54.1898 9.84557C53.6274 10.4364 53.2608 11.2267 53.0899 12.218H59.6341C59.4988 11.2445 59.1571 10.4596 58.6036 9.85981Z" fill="#EF4828"/>
<path d="M73.9199 21.0759V19.4189C73.386 20.0098 72.7488 20.4815 72.0049 20.8338C71.2627 21.1862 70.3568 21.3624 69.2908 21.3624C68.5664 21.3624 67.8848 21.2628 67.2476 21.0617C66.6087 20.8623 66.0516 20.5615 65.5764 20.1611C65.0995 19.7607 64.7239 19.2712 64.4481 18.6892C64.1722 18.1091 64.0334 17.4363 64.0334 16.6746V16.6176C64.0334 15.7794 64.1864 15.055 64.4908 14.4463C64.7951 13.8377 65.2187 13.3322 65.7615 12.9318C66.3043 12.5313 66.9522 12.2323 67.705 12.0312C68.4578 11.8319 69.2908 11.7304 70.2056 11.7304C70.9869 11.7304 71.6667 11.7874 72.2487 11.9013C72.8289 12.0152 73.3966 12.1682 73.9484 12.3587V12.1024C73.9484 11.1876 73.6725 10.4935 73.119 10.0165C72.5655 9.54133 71.7468 9.30285 70.6612 9.30285C69.8229 9.30285 69.0843 9.37404 68.4472 9.51642C67.8082 9.6588 67.1373 9.86347 66.4325 10.1304L65.3468 6.81654C66.1851 6.45525 67.0607 6.15981 67.9755 5.93022C68.8903 5.70064 69.9938 5.58673 71.2894 5.58673C73.6707 5.58673 75.4042 6.16871 76.4899 7.32911C77.5755 8.49128 78.1183 10.1109 78.1183 12.186V21.0723H73.9199V21.0759ZM74.0053 14.9019C73.6245 14.7311 73.2009 14.5923 72.7346 14.4873C72.2683 14.3823 71.7682 14.3306 71.2343 14.3306C70.2999 14.3306 69.5666 14.5122 69.0345 14.8735C68.5006 15.2348 68.2336 15.7598 68.2336 16.445V16.5019C68.2336 17.0928 68.4525 17.5502 68.8903 17.8741C69.3281 18.198 69.8994 18.36 70.6042 18.36C71.6329 18.36 72.4569 18.1126 73.0763 17.6178C73.6956 17.1231 74.0053 16.4752 74.0053 15.6744V14.9019Z" fill="#EF4828"/>
<path d="M93.2359 21.0898C92.6824 21.2518 92.0453 21.3337 91.3209 21.3337C90.6535 21.3337 90.0502 21.2625 89.5055 21.1201C88.9609 20.9777 88.4964 20.725 88.1049 20.3637C87.7133 20.0024 87.409 19.5308 87.1901 18.9488C86.9712 18.3686 86.8608 17.63 86.8608 16.7348V9.47341H85.0312V5.75908H86.8608V1.84363H91.2052V5.75908H94.8056V9.47341H91.2052V16.0176C91.2052 17.0089 91.6715 17.5036 92.6059 17.5036C93.3676 17.5036 94.0813 17.3221 94.7487 16.9608V20.4473C94.2931 20.7125 93.7894 20.9279 93.2359 21.0898Z" fill="#EF4828"/>
<path d="M105.552 21.0757V12.5525C105.552 11.5256 105.324 10.7514 104.866 10.2299C104.409 9.70846 103.761 9.44505 102.923 9.44505C102.085 9.44505 101.422 9.70668 100.937 10.2299C100.451 10.7532 100.209 11.5274 100.209 12.5525V21.0757H95.8661V0.215271H100.209V7.94828C100.456 7.62259 100.728 7.31113 101.024 7.01214C101.319 6.71492 101.647 6.45151 102.01 6.22015C102.371 5.99056 102.772 5.80724 103.209 5.67376C103.647 5.54028 104.142 5.47265 104.695 5.47265C106.352 5.47265 107.634 5.9781 108.54 6.98722C109.444 7.99634 109.898 9.3881 109.898 11.159V21.0739H105.552V21.0757Z" fill="#EF4828"/>
<path d="M125.798 14.3875C125.789 14.5406 125.773 14.7221 125.755 14.9303H115.096C115.306 15.9216 115.739 16.6691 116.397 17.1728C117.054 17.6783 117.869 17.9292 118.841 17.9292C119.565 17.9292 120.213 17.8046 120.784 17.5572C121.356 17.3098 121.947 16.9094 122.555 16.3577L125.042 18.5574C124.317 19.4527 123.442 20.1539 122.413 20.6576C121.384 21.1612 120.174 21.4139 118.784 21.4139C117.641 21.4139 116.579 21.2235 115.598 20.8426C114.618 20.4618 113.769 19.919 113.055 19.2142C112.341 18.5094 111.784 17.6765 111.384 16.7136C110.983 15.7526 110.784 14.6812 110.784 13.4994V13.4424C110.784 12.3568 110.969 11.3281 111.341 10.3564C111.713 9.38462 112.231 8.53746 112.898 7.8131C113.566 7.08874 114.36 6.51744 115.285 6.0992C116.209 5.68096 117.232 5.47095 118.357 5.47095C119.633 5.47095 120.738 5.69876 121.671 6.15615C122.603 6.61355 123.381 7.22756 123.999 7.99997C124.618 8.7706 125.075 9.65692 125.371 10.6571C125.666 11.6574 125.814 12.7003 125.814 13.7859V13.8429C125.812 14.0547 125.807 14.2362 125.798 14.3875ZM120.553 9.85981C120 9.26004 119.268 8.95926 118.353 8.95926C117.438 8.95926 116.7 9.2547 116.139 9.84557C115.577 10.4364 115.21 11.2267 115.039 12.218H121.584C121.45 11.2445 121.107 10.4596 120.553 9.85981Z" fill="#EF4828"/>
<path d="M142.1 16.5464C141.68 17.5092 141.1 18.351 140.358 19.0754C139.616 19.7997 138.738 20.371 137.729 20.7893C136.72 21.2075 135.615 21.4175 134.415 21.4175C133.234 21.4175 132.139 21.2129 131.13 20.8035C130.121 20.3942 129.249 19.8318 128.516 19.1181C127.782 18.4044 127.206 17.5662 126.788 16.6033C126.368 15.6423 126.159 14.6082 126.159 13.503V13.446C126.159 12.3408 126.369 11.3086 126.788 10.3457C127.206 9.38466 127.788 8.54106 128.53 7.8167C129.272 7.09234 130.149 6.52104 131.159 6.1028C132.168 5.68456 133.273 5.47455 134.472 5.47455C135.654 5.47455 136.749 5.67922 137.758 6.08856C138.767 6.4979 139.639 7.0603 140.372 7.77398C141.106 8.48766 141.682 9.3277 142.1 10.2888C142.519 11.2516 142.729 12.2839 142.729 13.3891V13.446C142.729 14.5513 142.519 15.5835 142.1 16.5464ZM138.441 13.446C138.441 12.8747 138.345 12.3373 138.155 11.8318C137.964 11.3281 137.688 10.8796 137.325 10.4881C136.964 10.0983 136.535 9.78866 136.04 9.55907C135.544 9.33126 135.001 9.21558 134.412 9.21558C133.784 9.21558 133.227 9.32593 132.741 9.54483C132.255 9.76374 131.84 10.0645 131.498 10.4454C131.155 10.8263 130.893 11.2694 130.712 11.7749C130.53 12.2803 130.44 12.8178 130.44 13.3891V13.446C130.44 14.0173 130.534 14.5566 130.726 15.0603C130.917 15.5657 131.192 16.0124 131.555 16.404C131.917 16.7955 132.342 17.1034 132.826 17.333C133.31 17.5626 133.86 17.6765 134.469 17.6765C135.097 17.6765 135.654 17.5662 136.14 17.3473C136.626 17.1283 137.041 16.8276 137.382 16.4467C137.726 16.0658 137.987 15.6227 138.169 15.1172C138.351 14.6136 138.441 14.0743 138.441 13.503V13.446Z" fill="#EF4828"/>
<path d="M152.729 10.0161C151.28 10.0161 150.143 10.4539 149.314 11.3313C148.484 12.207 148.072 13.5703 148.072 15.4177V21.0755H143.727V5.75895H148.072V8.84504C148.509 7.79677 149.109 6.95851 149.873 6.33025C150.634 5.702 151.663 5.41546 152.959 5.47242V10.0161H152.729Z" fill="#EF4828"/>
<path d="M167.803 14.3875C167.794 14.5406 167.778 14.7221 167.761 14.9303H157.102C157.312 15.9216 157.744 16.6691 158.403 17.1728C159.06 17.6783 159.875 17.9292 160.846 17.9292C161.571 17.9292 162.219 17.8046 162.79 17.5572C163.361 17.3098 163.952 16.9094 164.561 16.3577L167.047 18.5574C166.323 19.4527 165.447 20.1539 164.418 20.6576C163.39 21.1612 162.179 21.4139 160.789 21.4139C159.647 21.4139 158.584 21.2235 157.604 20.8426C156.623 20.4618 155.774 19.919 155.06 19.2142C154.347 18.5094 153.79 17.6765 153.389 16.7136C152.989 15.7526 152.789 14.6812 152.789 13.4994V13.4424C152.789 12.3568 152.975 11.3281 153.347 10.3564C153.719 9.38462 154.236 8.53746 154.904 7.8131C155.571 7.08874 156.365 6.51744 157.29 6.0992C158.214 5.68096 159.237 5.47095 160.362 5.47095C161.638 5.47095 162.744 5.69876 163.676 6.15615C164.609 6.61355 165.387 7.22756 166.004 7.99997C166.623 8.7706 167.081 9.65692 167.376 10.6571C167.672 11.6574 167.819 12.7003 167.819 13.7859V13.8429C167.818 14.0547 167.812 14.2362 167.803 14.3875ZM162.558 9.85981C162.005 9.26004 161.274 8.95926 160.359 8.95926C159.444 8.95926 158.705 9.2547 158.145 9.84557C157.582 10.4364 157.216 11.2267 157.045 12.218H163.589C163.454 11.2445 163.112 10.4596 162.558 9.85981Z" fill="#EF4828"/>
<path d="M187.934 21.0758V12.5526C187.934 11.5257 187.716 10.7515 187.278 10.23C186.84 9.70858 186.21 9.44518 185.391 9.44518C184.573 9.44518 183.928 9.7068 183.462 10.23C182.996 10.7533 182.763 11.5275 182.763 12.5526V21.0758H178.418V12.5526C178.418 11.5257 178.199 10.7515 177.761 10.23C177.324 9.70858 176.694 9.44518 175.875 9.44518C175.056 9.44518 174.412 9.7068 173.946 10.23C173.479 10.7533 173.246 11.5275 173.246 12.5526V21.0758H168.902V5.75932H173.246V7.94841C173.494 7.62272 173.766 7.31126 174.061 7.01226C174.357 6.71504 174.684 6.45164 175.047 6.22027C175.409 5.99069 175.814 5.80737 176.261 5.67389C176.708 5.54041 177.208 5.47278 177.761 5.47278C178.771 5.47278 179.643 5.68457 180.376 6.10637C181.109 6.52817 181.675 7.13328 182.076 7.91993C182.743 7.11371 183.485 6.50503 184.304 6.09213C185.122 5.67923 186.057 5.47278 187.105 5.47278C188.725 5.47278 189.992 5.94975 190.905 6.90192C191.82 7.85408 192.277 9.25475 192.277 11.1021V21.0758H187.934Z" fill="#EF4828"/>
<path d="M9.85625 15.3143C9.85625 16.092 9.85447 16.8715 9.85625 17.6493C9.85625 17.8967 9.81532 18.1316 9.64446 18.3203C9.55903 18.4128 9.46115 18.5018 9.35436 18.5659C8.06938 19.3525 6.78085 20.1303 5.49765 20.9169C5.10966 21.1554 4.73769 21.1483 4.35505 20.9133C3.07007 20.1285 1.78331 19.3472 0.49655 18.5641C0.165517 18.3665 0 18.0729 0 17.6813C0.00177975 16.1098 0.00177975 14.5365 0 12.965C0 12.5681 0.169076 12.2744 0.505449 12.0698C1.78509 11.292 3.06651 10.5143 4.34437 9.73118C4.73769 9.49092 5.11678 9.48736 5.5101 9.72762C6.79152 10.5125 8.07472 11.2902 9.35792 12.0716C9.69963 12.2798 9.86159 12.5788 9.85803 12.9792C9.85269 13.7588 9.85625 14.5365 9.85625 15.3143ZM8.00175 15.3125C8.00175 14.7145 8.00175 14.1165 8.00353 13.5185C8.00353 13.4455 7.9893 13.3921 7.91988 13.3512C6.95348 12.7657 5.98708 12.1783 5.02245 11.591C4.95304 11.5483 4.90143 11.5572 4.83736 11.5964C3.87807 12.1801 2.91879 12.7639 1.9595 13.3459C1.88653 13.3903 1.85806 13.4384 1.85806 13.5256C1.86162 14.7216 1.86162 15.9176 1.85806 17.1154C1.85806 17.2061 1.88831 17.2595 1.96484 17.3058C2.92235 17.8842 3.87985 18.4662 4.8338 19.0482C4.90855 19.0944 4.96372 19.0909 5.03847 19.0464C5.98708 18.4662 6.93746 17.8896 7.88963 17.3147C7.97506 17.2631 8.00709 17.2079 8.00709 17.1082C7.99819 16.5085 8.00175 15.9105 8.00175 15.3125Z" fill="#EF4828"/>
<path d="M10.9207 15.3107C10.9207 14.5365 10.9224 13.7605 10.9207 12.9864C10.9207 12.739 10.9634 12.504 11.1342 12.3172C11.2161 12.2264 11.3122 12.141 11.4154 12.0787C12.7093 11.2867 14.0067 10.5018 15.3024 9.71162C15.669 9.48915 16.0303 9.49093 16.3969 9.7134C17.6926 10.5018 18.99 11.2903 20.2857 12.0787C20.6149 12.278 20.7787 12.5717 20.7769 12.9579C20.7751 14.533 20.7751 16.1098 20.7769 17.6849C20.7769 18.0729 20.6114 18.3648 20.2839 18.5641C18.9883 19.3525 17.6908 20.1374 16.3969 20.9294C16.0232 21.1572 15.6619 21.1501 15.2953 20.9258C14.0032 20.1392 12.7093 19.3525 11.4172 18.5677C11.0808 18.363 10.9171 18.0658 10.9207 17.6689C10.926 16.884 10.9207 16.0974 10.9207 15.3107ZM18.9224 15.3178C18.9224 14.7234 18.9206 14.129 18.9242 13.5345C18.9242 13.4402 18.8921 13.385 18.8121 13.337C17.8599 12.7621 16.9095 12.1855 15.9627 11.6053C15.8773 11.5519 15.815 11.5537 15.7295 11.6053C14.7774 12.1872 13.8234 12.7657 12.8695 13.3423C12.8001 13.385 12.7751 13.4349 12.7751 13.5167C12.7769 14.7198 12.7769 15.9247 12.7751 17.1278C12.7751 17.2097 12.8036 17.2578 12.873 17.2987C13.8305 17.8771 14.788 18.4591 15.742 19.0411C15.8167 19.0856 15.8719 19.0891 15.9467 19.0428C16.9024 18.4591 17.8581 17.8789 18.8156 17.3005C18.8921 17.2542 18.9224 17.2026 18.9224 17.11C18.9188 16.5138 18.9224 15.9158 18.9224 15.3178Z" fill="#EF4828"/>
<path d="M15.3166 5.77324C15.3166 6.54743 15.3095 7.3234 15.3201 8.09759C15.3255 8.51939 15.1528 8.81839 14.7933 9.03552C13.5066 9.81149 12.2234 10.5928 10.9437 11.3777C10.5664 11.609 10.2034 11.6019 9.8314 11.3759C8.5393 10.5892 7.24542 9.80437 5.95154 9.01594C5.62763 8.81839 5.46033 8.53541 5.46211 8.1492C5.46567 6.56523 5.46567 4.98125 5.46211 3.39727C5.46211 3.00573 5.63475 2.72275 5.96044 2.52341C7.24186 1.74033 8.52684 0.962575 9.80826 0.177705C10.198 -0.0607813 10.5753 -0.0607813 10.9633 0.177705C12.2447 0.960795 13.5297 1.74033 14.8147 2.51986C15.1511 2.72453 15.3219 3.01463 15.3184 3.41329C15.3112 4.19994 15.3166 4.98659 15.3166 5.77324ZM7.31839 5.76968C7.31839 6.36767 7.32017 6.96567 7.31661 7.56367C7.31661 7.65265 7.34331 7.70605 7.42162 7.75232C8.37378 8.32718 9.32417 8.90382 10.271 9.48402C10.3564 9.53563 10.4169 9.53919 10.5041 9.48579C11.4527 8.9056 12.4031 8.32896 13.3535 7.7541C13.4301 7.70783 13.4621 7.65799 13.4621 7.56722C13.4585 6.37123 13.4585 5.17524 13.4621 3.97925C13.4621 3.89026 13.4354 3.83687 13.3589 3.78882C12.4031 3.21218 11.451 2.63376 10.4988 2.05178C10.4205 2.00373 10.3635 2.00195 10.2835 2.05C9.33129 2.63198 8.37912 3.2104 7.4234 3.78704C7.34153 3.83687 7.31483 3.89382 7.31661 3.98637C7.32017 4.5808 7.31839 5.17524 7.31839 5.76968Z" fill="#EF4828"/>
</g>
<path d="M194.373 2.8417V5.22621H193.551V2.8417H192.684V2.07178H195.24V2.8417H194.373ZM196.257 5.22621H195.434V2.07178H196.481L197.221 3.64152L197.961 2.07178H199V5.22621H198.178V3.55182L197.475 4.97953H196.959L196.257 3.55182V5.22621Z" fill="#EF4828"/>
<defs>
<clipPath id="clip0_15_54354">
<rect width="192.277" height="21.4175" fill="white"/>
</clipPath>
</defs>
</svg>
